# xmcd CD database file
#
# Track frame offsets:
#	150
#	17812
#	52850
#	78300
#	107775
#	130625
#	158650
#	185000
#
# Disc length: 2905 seconds
#
# Revision: 1
# Processed by: cddbd v1.5.2PL0 Copyright (c) Steve Scherf et al.
# Submitted via: CDex 1.70beta2
#
DISCID=590b5708
DTITLE=Chet Baker - Welcome Back
DYEAR=1987
DGENRE=Jazz
TTITLE0=Welcome Back
TTITLE1=Christmas Waltz
TTITLE2=Glorias Answer
TTITLE3=Pitzal Daybreak
TTITLE4=Volta Trais
TTITLE5=Try It Dry
TTITLE6=Why Shoudn't You Cry
TTITLE7=Waltz For Berlin
EXTD=YEAR: 1987
EXTT0=
EXTT1=
EXTT2=
EXTT3=
EXTT4=
EXTT5=
EXTT6=
EXTT7=
PLAYORDER=
